<svg width="143" height="60" viewBox="0 0 143 60" fill="none" xmlns="http://www.w3.org/2000/svg">
<path d="M9.12 44.28L8.93039 44.7427L8.93039 44.7427L9.12 44.28ZM5.2 41.32L4.79702 41.6161L4.80098 41.6213L5.2 41.32ZM3.68 36.6V36.1H3.1653L3.18021 36.6145L3.68 36.6ZM10.96 36.6L11.4574 36.549L11.4113 36.1H10.96V36.6ZM12.04 39L11.7028 39.3694L11.7119 39.3773L12.04 39ZM16.84 39.12L17.1458 39.5158L17.1566 39.507L16.84 39.12ZM17 35.44L16.6464 35.7936L16.6515 35.7986L16.6567 35.8035L17 35.44ZM15.28 34.32L15.0786 34.7777L15.0852 34.7805L15.28 34.32ZM12.4 33.32L12.2525 33.7978L12.2573 33.7992L12.4 33.32ZM7.96 31.64L7.74058 32.0893L7.96 31.64ZM5 29.16L5.39883 28.8584L5.39883 28.8584L5 29.16ZM6.6 18.76L6.90621 19.1553L6.90964 19.1526L6.6 18.76ZM21.48 18.76L21.1703 19.1526L21.1738 19.1553L21.48 18.76ZM24.52 24.92V25.42H25.0459L25.0194 24.8948L24.52 24.92ZM17.12 24.92L16.6209 24.9494L16.6485 25.42H17.12V24.92ZM16.12 22.8L15.7918 23.1774L15.8016 23.1855L16.12 22.8ZM11.76 22.68L12.0821 23.0625L12.0878 23.0576L12.0934 23.0526L11.76 22.68ZM12.28 26.68L12.5353 26.2501L12.5353 26.2501L12.28 26.68ZM16.28 28.32L16.4402 27.8463L16.4339 27.8443L16.28 28.32ZM20.68 30.08L20.4564 30.5272L20.4606 30.5293L20.68 30.08ZM23.64 32.52L23.2448 32.8263L23.2448 32.8263L23.64 32.52ZM23.64 41L23.2174 40.7327L23.2136 40.7389L23.64 41ZM20.12 44.12L19.8964 43.6728L19.8964 43.6728L20.12 44.12ZM14.64 44.78C12.6409 44.78 10.8669 44.4556 9.30961 43.8173L8.93039 44.7427C10.6265 45.4378 12.5324 45.78 14.64 45.78V44.78ZM9.30961 43.8173C7.75962 43.1821 6.52764 42.2485 5.59902 41.0187L4.80098 41.6213C5.84569 43.0048 7.22705 44.0446 8.93039 44.7427L9.30961 43.8173ZM5.60294 41.024C4.71098 39.8099 4.23059 38.3382 4.17979 36.5855L3.18021 36.6145C3.23607 38.5418 3.76902 40.2168 4.79706 41.616L5.60294 41.024ZM3.68 37.1H10.96V36.1H3.68V37.1ZM10.4626 36.651C10.5784 37.7804 10.9772 38.7066 11.7029 39.3692L12.3771 38.6308C11.8762 38.1734 11.5549 37.4996 11.4574 36.549L10.4626 36.651ZM11.7119 39.3773C12.4347 40.0058 13.3597 40.3 14.44 40.3V39.3C13.547 39.3 12.872 39.0609 12.3681 38.6227L11.7119 39.3773ZM14.44 40.3C15.5239 40.3 16.4443 40.0576 17.1457 39.5156L16.5343 38.7244C16.0623 39.089 15.3828 39.3 14.44 39.3V40.3ZM17.1566 39.507C17.8708 38.9226 18.22 38.1212 18.22 37.16H17.22C17.22 37.8522 16.9825 38.3574 16.5234 38.733L17.1566 39.507ZM18.22 37.16C18.22 36.3368 17.9288 35.6295 17.3433 35.0765L16.6567 35.8035C17.0312 36.1572 17.22 36.5965 17.22 37.16H18.22ZM17.3536 35.0864C16.8475 34.5804 16.2173 34.1736 15.4748 33.8595L15.0852 34.7805C15.7294 35.053 16.2459 35.393 16.6464 35.7936L17.3536 35.0864ZM15.4814 33.8623C14.7863 33.5565 13.803 33.2162 12.5427 32.8408L12.2573 33.7992C13.5036 34.1705 14.4404 34.4968 15.0786 34.7777L15.4814 33.8623ZM12.5475 32.8423C10.7482 32.2866 9.29466 31.7354 8.17942 31.1907L7.74058 32.0893C8.91867 32.6646 10.4251 33.2334 12.2525 33.7977L12.5475 32.8423ZM8.17942 31.1907C7.10849 30.6677 6.18172 29.8939 5.39883 28.8584L4.60117 29.4616C5.47162 30.6128 6.51817 31.4923 7.74058 32.0893L8.17942 31.1907ZM5.39883 28.8584C4.65439 27.8739 4.26 26.5623 4.26 24.88H3.26C3.26 26.7177 3.69228 28.2595 4.60117 29.4616L5.39883 28.8584ZM4.26 24.88C4.26 22.4051 5.14739 20.5177 6.9062 19.1553L6.2938 18.3647C4.26595 19.9356 3.26 22.1282 3.26 24.88H4.26ZM6.90964 19.1526C8.69389 17.7453 11.0425 17.02 14 17.02V16.02C10.8775 16.02 8.29277 16.788 6.29036 18.3674L6.90964 19.1526ZM14 17.02C17.0132 17.02 19.3876 17.7464 21.1704 19.1526L21.7896 18.3674C19.7858 16.7869 17.1735 16.02 14 16.02V17.02ZM21.1738 19.1553C22.9391 20.5227 23.8938 22.4338 24.0206 24.9452L25.0194 24.8948C24.8795 22.1262 23.8076 19.9306 21.7862 18.3647L21.1738 19.1553ZM24.52 24.42H17.12V25.42H24.52V24.42ZM17.6191 24.8906C17.5589 23.8669 17.1745 23.0225 16.4384 22.4145L15.8016 23.1855C16.2922 23.5908 16.5744 24.1597 16.6209 24.9494L17.6191 24.8906ZM16.4481 22.4227C15.7278 21.7963 14.8176 21.5 13.76 21.5V22.5C14.6224 22.5 15.2855 22.737 15.7919 23.1773L16.4481 22.4227ZM13.76 21.5C12.8382 21.5 12.0438 21.7552 11.4266 22.3074L12.0934 23.0526C12.4896 22.6982 13.0285 22.5 13.76 22.5V21.5ZM11.4379 22.2975C10.7912 22.8422 10.5 23.6256 10.5 24.56H11.5C11.5 23.8411 11.7155 23.3712 12.0821 23.0625L11.4379 22.2975ZM10.5 24.56C10.5 25.6624 11.037 26.5235 12.0247 27.1099L12.5353 26.2501C11.8163 25.8232 11.5 25.2709 11.5 24.56H10.5ZM12.0247 27.1099C12.9272 27.6458 14.3034 28.206 16.1261 28.7957L16.4339 27.8443C14.6299 27.2606 13.3395 26.7276 12.5353 26.2501L12.0247 27.1099ZM16.1198 28.7936C17.9215 29.403 19.3646 29.9813 20.4564 30.5272L20.9036 29.6328C19.7554 29.0587 18.2652 28.4636 16.4402 27.8464L16.1198 28.7936ZM20.4606 30.5293C21.5345 31.0538 22.4622 31.8165 23.2448 32.8263L24.0352 32.2137C23.1644 31.0901 22.1188 30.2262 20.8994 29.6307L20.4606 30.5293ZM23.2448 32.8263C23.9883 33.7857 24.38 35.0432 24.38 36.64H25.38C25.38 34.8768 24.945 33.3877 24.0352 32.2137L23.2448 32.8263ZM24.38 36.64C24.38 38.1488 23.9917 39.5089 23.2175 40.7327L24.0625 41.2673C24.9416 39.8778 25.38 38.3312 25.38 36.64H24.38ZM23.2136 40.7389C22.4685 41.9559 21.3704 42.9358 19.8964 43.6728L20.3436 44.5672C21.9629 43.7576 23.2115 42.6575 24.0664 41.2611L23.2136 40.7389ZM19.8964 43.6728C18.4327 44.4046 16.6857 44.78 14.64 44.78V45.78C16.8076 45.78 18.714 45.382 20.3436 44.5672L19.8964 43.6728ZM43.7294 39.2H44.2294V38.7H43.7294V39.2ZM43.7294 45V45.5H44.2294V45H43.7294ZM34.4494 43.2L34.1181 43.5745L34.1222 43.5781L34.4494 43.2ZM32.3694 28.36H32.8694V27.86H32.3694V28.36ZM29.6494 28.36H29.1494V28.86H29.6494V28.36ZM29.6494 22.68V22.18H29.1494V22.68H29.6494ZM32.3694 22.68V23.18H32.8694V22.68H32.3694ZM32.3694 17.24V16.74H31.8694V17.24H32.3694ZM39.2094 17.24H39.7094V16.74H39.2094V17.24ZM39.2094 22.68H38.7094V23.18H39.2094V22.68ZM43.6894 22.68H44.1894V22.18H43.6894V22.68ZM43.6894 28.36V28.86H44.1894V28.36H43.6894ZM39.2094 28.36V27.86H38.7094V28.36H39.2094ZM39.6894 38.76L39.3515 39.1286L39.3515 39.1286L39.6894 38.76ZM43.2294 39.2V45H44.2294V39.2H43.2294ZM43.7294 44.5H40.2494V45.5H43.7294V44.5ZM40.2494 44.5C37.8469 44.5 36.0446 43.9193 34.7766 42.8219L34.1222 43.5781C35.6275 44.8807 37.6918 45.5 40.2494 45.5V44.5ZM34.7807 42.8255C33.5445 41.732 32.8694 39.9135 32.8694 37.24H31.8694C31.8694 40.0598 32.5809 42.2147 34.1181 43.5745L34.7807 42.8255ZM32.8694 37.24V28.36H31.8694V37.24H32.8694ZM32.3694 27.86H29.6494V28.86H32.3694V27.86ZM30.1494 28.36V22.68H29.1494V28.36H30.1494ZM29.6494 23.18H32.3694V22.18H29.6494V23.18ZM32.8694 22.68V17.24H31.8694V22.68H32.8694ZM32.3694 17.74H39.2094V16.74H32.3694V17.74ZM38.7094 17.24V22.68H39.7094V17.24H38.7094ZM39.2094 23.18H43.6894V22.18H39.2094V23.18ZM43.1894 22.68V28.36H44.1894V22.68H43.1894ZM43.6894 27.86H39.2094V28.86H43.6894V27.86ZM38.7094 28.36V37.32H39.7094V28.36H38.7094ZM38.7094 37.32C38.7094 38.0523 38.8838 38.6998 39.3515 39.1286L40.0272 38.3914C39.855 38.2335 39.7094 37.921 39.7094 37.32H38.7094ZM39.3515 39.1286C39.8106 39.5494 40.5006 39.7 41.2894 39.7V38.7C40.5849 38.7 40.2081 38.5573 40.0272 38.3914L39.3515 39.1286ZM41.2894 39.7H43.7294V38.7H41.2894V39.7ZM50.2194 19.32L49.8723 19.6799L49.8788 19.6862L49.8856 19.6923L50.2194 19.32ZM50.2194 14.04L50.5596 14.4064L50.5601 14.4059L50.2194 14.04ZM56.0594 14.04L55.7123 14.3999L55.7188 14.4062L55.7256 14.4123L56.0594 14.04ZM56.0594 19.32L56.3996 19.6864L56.4001 19.6859L56.0594 19.32ZM56.5794 22.68H57.0794V22.18H56.5794V22.68ZM56.5794 45V45.5H57.0794V45H56.5794ZM49.7394 45H49.2394V45.5H49.7394V45ZM49.7394 22.68V22.18H49.2394V22.68H49.7394ZM53.1794 19.86C52.0822 19.86 51.2206 19.5461 50.5531 18.9477L49.8856 19.6923C50.7648 20.4805 51.8766 20.86 53.1794 20.86V19.86ZM50.5664 18.9601C49.9178 18.3346 49.5994 17.5846 49.5994 16.68H48.5994C48.5994 17.8554 49.0276 18.8654 49.8723 19.6799L50.5664 18.9601ZM49.5994 16.68C49.5994 15.745 49.9201 15.0002 50.5596 14.4064L49.8792 13.6736C49.0253 14.4664 48.5994 15.4816 48.5994 16.68H49.5994ZM50.5601 14.4059C51.2282 13.7839 52.0873 13.46 53.1794 13.46V12.46C51.8714 12.46 50.7572 12.8561 49.8787 13.6741L50.5601 14.4059ZM53.1794 13.46C54.2417 13.46 55.0713 13.7818 55.7123 14.3999L56.4064 13.6801C55.5541 12.8582 54.4638 12.46 53.1794 12.46V13.46ZM55.7256 14.4123C56.3899 15.0079 56.7194 15.751 56.7194 16.68H57.7194C57.7194 15.4756 57.2755 14.4588 56.3931 13.6677L55.7256 14.4123ZM56.7194 16.68C56.7194 17.5787 56.3923 18.3269 55.7187 18.9541L56.4001 19.6859C57.2732 18.8731 57.7194 17.8613 57.7194 16.68H56.7194ZM55.7192 18.9536C55.079 19.5481 54.247 19.86 53.1794 19.86V20.86C54.4584 20.86 55.5465 20.4786 56.3996 19.6864L55.7192 18.9536ZM56.0794 22.68V45H57.0794V22.68H56.0794ZM56.5794 44.5H49.7394V45.5H56.5794V44.5ZM50.2394 45V22.68H49.2394V45H50.2394ZM49.7394 23.18H56.5794V22.18H49.7394V23.18ZM70.5762 15.4H71.0762V14.9H70.5762V15.4ZM70.5762 45V45.5H71.0762V45H70.5762ZM63.7362 45H63.2362V45.5H63.7362V45ZM63.7362 15.4V14.9H63.2362V15.4H63.7362ZM70.0762 15.4V45H71.0762V15.4H70.0762ZM70.5762 44.5H63.7362V45.5H70.5762V44.5ZM64.2362 45V15.4H63.2362V45H64.2362ZM63.7362 15.9H70.5762V14.9H63.7362V15.9ZM95.2131 40.04L95.6867 39.8796L95.5717 39.54H95.2131V40.04ZM84.7331 40.04V39.54H84.3746L84.2596 39.8796L84.7331 40.04ZM83.0531 45V45.5H83.4117L83.5267 45.1604L83.0531 45ZM75.8931 45L75.423 44.8299L75.1805 45.5H75.8931V45ZM86.0531 16.92V16.42H85.7023L85.583 16.7499L86.0531 16.92ZM93.9731 16.92L94.4433 16.7499L94.3239 16.42H93.9731V16.92ZM104.133 45V45.5H104.846L104.603 44.8299L104.133 45ZM96.8931 45L96.4196 45.1604L96.5346 45.5H96.8931V45ZM93.4531 34.76V35.26H94.1503L93.9267 34.5997L93.4531 34.76ZM89.9731 24.48L90.4467 24.3197L89.9704 22.9126L89.499 24.3213L89.9731 24.48ZM86.5331 34.76L86.059 34.6013L85.8386 35.26H86.5331V34.76ZM95.2131 39.54H84.7331V40.54H95.2131V39.54ZM84.2596 39.8796L82.5796 44.8396L83.5267 45.1604L85.2067 40.2004L84.2596 39.8796ZM83.0531 44.5H75.8931V45.5H83.0531V44.5ZM76.3633 45.1701L86.5233 17.0901L85.583 16.7499L75.423 44.8299L76.3633 45.1701ZM86.0531 17.42H93.9731V16.42H86.0531V17.42ZM93.503 17.0901L103.663 45.1701L104.603 44.8299L94.4433 16.7499L93.503 17.0901ZM104.133 44.5H96.8931V45.5H104.133V44.5ZM97.3667 44.8396L95.6867 39.8796L94.7396 40.2004L96.4196 45.1604L97.3667 44.8396ZM93.9267 34.5997L90.4467 24.3197L89.4995 24.6403L92.9795 34.9203L93.9267 34.5997ZM89.499 24.3213L86.059 34.6013L87.0073 34.9187L90.4473 24.6387L89.499 24.3213ZM86.5331 35.26H93.4531V34.26H86.5331V35.26ZM116.265 26.4H115.765V28.082L116.684 26.6731L116.265 26.4ZM119.265 23.52L119.515 23.953L119.523 23.9487L119.265 23.52ZM123.265 22.44H123.765V21.94H123.265V22.44ZM123.265 29.68V30.18H123.765V29.68H123.265ZM117.545 30.8L117.868 31.1822L117.875 31.1763L117.545 30.8ZM116.265 45V45.5H116.765V45H116.265ZM109.425 45H108.925V45.5H109.425V45ZM109.425 22.68V22.18H108.925V22.68H109.425ZM116.265 22.68H116.765V22.18H116.265V22.68ZM116.684 26.6731C117.444 25.5084 118.387 24.6048 119.515 23.9529L119.015 23.0871C117.743 23.8219 116.687 24.8383 115.847 26.1269L116.684 26.6731ZM119.523 23.9487C120.641 23.2777 121.885 22.94 123.265 22.94V21.94C121.713 21.94 120.29 22.3223 119.008 23.0913L119.523 23.9487ZM122.765 22.44V29.68H123.765V22.44H122.765ZM123.265 29.18H121.385V30.18H123.265V29.18ZM121.385 29.18C119.617 29.18 118.197 29.5654 117.216 30.4237L117.875 31.1763C118.6 30.5412 119.741 30.18 121.385 30.18V29.18ZM117.223 30.4179C116.201 31.2799 115.765 32.7459 115.765 34.64H116.765C116.765 32.8541 117.183 31.7601 117.868 31.1821L117.223 30.4179ZM115.765 34.64V45H116.765V34.64H115.765ZM116.265 44.5H109.425V45.5H116.265V44.5ZM109.925 45V22.68H108.925V45H109.925ZM109.425 23.18H116.265V22.18H109.425V23.18ZM115.765 22.68V26.4H116.765V22.68H115.765ZM141.175 39.2H141.675V38.7H141.175V39.2ZM141.175 45V45.5H141.675V45H141.175ZM131.895 43.2L131.563 43.5745L131.567 43.5781L131.895 43.2ZM129.815 28.36H130.315V27.86H129.815V28.36ZM127.095 28.36H126.595V28.86H127.095V28.36ZM127.095 22.68V22.18H126.595V22.68H127.095ZM129.815 22.68V23.18H130.315V22.68H129.815ZM129.815 17.24V16.74H129.315V17.24H129.815ZM136.655 17.24H137.155V16.74H136.655V17.24ZM136.655 22.68H136.155V23.18H136.655V22.68ZM141.135 22.68H141.635V22.18H141.135V22.68ZM141.135 28.36V28.86H141.635V28.36H141.135ZM136.655 28.36V27.86H136.155V28.36H136.655ZM137.135 38.76L136.797 39.1286L136.797 39.1286L137.135 38.76ZM140.675 39.2V45H141.675V39.2H140.675ZM141.175 44.5H137.695V45.5H141.175V44.5ZM137.695 44.5C135.292 44.5 133.49 43.9193 132.222 42.8219L131.567 43.5781C133.073 44.8807 135.137 45.5 137.695 45.5V44.5ZM132.226 42.8255C130.99 41.732 130.315 39.9135 130.315 37.24H129.315C129.315 40.0598 130.026 42.2147 131.563 43.5745L132.226 42.8255ZM130.315 37.24V28.36H129.315V37.24H130.315ZM129.815 27.86H127.095V28.86H129.815V27.86ZM127.595 28.36V22.68H126.595V28.36H127.595ZM127.095 23.18H129.815V22.18H127.095V23.18ZM130.315 22.68V17.24H129.315V22.68H130.315ZM129.815 17.74H136.655V16.74H129.815V17.74ZM136.155 17.24V22.68H137.155V17.24H136.155ZM136.655 23.18H141.135V22.18H136.655V23.18ZM140.635 22.68V28.36H141.635V22.68H140.635ZM141.135 27.86H136.655V28.86H141.135V27.86ZM136.155 28.36V37.32H137.155V28.36H136.155ZM136.155 37.32C136.155 38.0523 136.329 38.6998 136.797 39.1286L137.473 38.3914C137.3 38.2335 137.155 37.921 137.155 37.32H136.155ZM136.797 39.1286C137.256 39.5494 137.946 39.7 138.735 39.7V38.7C138.03 38.7 137.653 38.5573 137.473 38.3914L136.797 39.1286ZM138.735 39.7H141.175V38.7H138.735V39.7Z" fill="black"/>
<path d="M12.64 43.28C10.5867 43.28 8.74667 42.9467 7.12 42.28C5.49333 41.6133 4.18667 40.6267 3.2 39.32C2.24 38.0133 1.73333 36.44 1.68 34.6H8.96C9.06667 35.64 9.42667 36.44 10.04 37C10.6533 37.5333 11.4533 37.8 12.44 37.8C13.4533 37.8 14.2533 37.5733 14.84 37.12C15.4267 36.64 15.72 35.9867 15.72 35.16C15.72 34.4667 15.48 33.8933 15 33.44C14.5467 32.9867 13.9733 32.6133 13.28 32.32C12.6133 32.0267 11.6533 31.6933 10.4 31.32C8.58667 30.76 7.10667 30.2 5.96 29.64C4.81333 29.08 3.82667 28.2533 3 27.16C2.17333 26.0667 1.76 24.64 1.76 22.88C1.76 20.2667 2.70667 18.2267 4.6 16.76C6.49333 15.2667 8.96 14.52 12 14.52C15.0933 14.52 17.5867 15.2667 19.48 16.76C21.3733 18.2267 22.3867 20.28 22.52 22.92H15.12C15.0667 22.0133 14.7333 21.3067 14.12 20.8C13.5067 20.2667 12.72 20 11.76 20C10.9333 20 10.2667 20.2267 9.76 20.68C9.25333 21.1067 9 21.7333 9 22.56C9 23.4667 9.42667 24.1733 10.28 24.68C11.1333 25.1867 12.4667 25.7333 14.28 26.32C16.0933 26.9333 17.56 27.52 18.68 28.08C19.8267 28.64 20.8133 29.4533 21.64 30.52C22.4667 31.5867 22.88 32.96 22.88 34.64C22.88 36.24 22.4667 37.6933 21.64 39C20.84 40.3067 19.6667 41.3467 18.12 42.12C16.5733 42.8933 14.7467 43.28 12.64 43.28ZM41.7294 37.2V43H38.2494C35.7694 43 33.836 42.4 32.4494 41.2C31.0627 39.9733 30.3694 37.9867 30.3694 35.24V26.36H27.6494V20.68H30.3694V15.24H37.2094V20.68H41.6894V26.36H37.2094V35.32C37.2094 35.9867 37.3694 36.4667 37.6894 36.76C38.0094 37.0533 38.5427 37.2 39.2894 37.2H41.7294ZM51.1794 18.36C49.9794 18.36 48.9927 18.0133 48.2194 17.32C47.4727 16.6 47.0994 15.72 47.0994 14.68C47.0994 13.6133 47.4727 12.7333 48.2194 12.04C48.9927 11.32 49.9794 10.96 51.1794 10.96C52.3527 10.96 53.3127 11.32 54.0594 12.04C54.8327 12.7333 55.2194 13.6133 55.2194 14.68C55.2194 15.72 54.8327 16.6 54.0594 17.32C53.3127 18.0133 52.3527 18.36 51.1794 18.36ZM54.5794 20.68V43H47.7394V20.68H54.5794ZM68.5762 13.4V43H61.7362V13.4H68.5762ZM93.2131 38.04H82.7331L81.0531 43H73.8931L84.0531 14.92H91.9731L102.133 43H94.8931L93.2131 38.04ZM91.4531 32.76L87.9731 22.48L84.5331 32.76H91.4531ZM114.265 24.4C115.065 23.1733 116.065 22.2133 117.265 21.52C118.465 20.8 119.799 20.44 121.265 20.44V27.68H119.385C117.679 27.68 116.399 28.0533 115.545 28.8C114.692 29.52 114.265 30.8 114.265 32.64V43H107.425V20.68H114.265V24.4ZM139.175 37.2V43H135.695C133.215 43 131.281 42.4 129.895 41.2C128.508 39.9733 127.815 37.9867 127.815 35.24V26.36H125.095V20.68H127.815V15.24H134.655V20.68H139.135V26.36H134.655V35.32C134.655 35.9867 134.815 36.4667 135.135 36.76C135.455 37.0533 135.988 37.2 136.735 37.2H139.175Z" fill="black"/>
</svg>
