<svg width="210" height="88" viewBox="0 0 210 88" fill="none" xmlns="http://www.w3.org/2000/svg">
<path d="M12.502 64.938L12.3124 65.4007L12.3124 65.4007L12.502 64.938ZM6.72 60.572L6.31702 60.8681L6.32098 60.8733L6.72 60.572ZM4.478 53.61V53.11H3.9633L3.97821 53.6245L4.478 53.61ZM15.216 53.61L15.7134 53.559L15.6673 53.11H15.216V53.61ZM16.809 57.15L16.4718 57.5194L16.4809 57.5273L16.809 57.15ZM23.889 57.327L24.1948 57.7228L24.2056 57.714L23.889 57.327ZM24.125 51.899L23.7714 52.2526L23.7765 52.2576L23.7817 52.2625L24.125 51.899ZM21.588 50.247L21.3866 50.7047L21.3932 50.7075L21.588 50.247ZM17.34 48.772L17.1925 49.2498L17.1973 49.2512L17.34 48.772ZM10.791 46.294L10.5716 46.7433L10.5716 46.7433L10.791 46.294ZM6.425 42.636L6.82383 42.3344L6.82383 42.3344L6.425 42.636ZM8.785 27.296L9.09121 27.6913L9.09464 27.6886L8.785 27.296ZM30.733 27.296L30.4233 27.6886L30.4268 27.6913L30.733 27.296ZM35.217 36.382V36.882H35.7429L35.7164 36.3568L35.217 36.382ZM24.302 36.382L23.8029 36.4114L23.8305 36.882H24.302V36.382ZM22.827 33.255L22.4988 33.6324L22.5086 33.6405L22.827 33.255ZM16.396 33.078L16.7181 33.4605L16.7238 33.4556L16.7294 33.4506L16.396 33.078ZM17.163 38.978L17.4183 38.5481L17.4183 38.5481L17.163 38.978ZM23.063 41.397L23.2232 40.9233L23.2169 40.9213L23.063 41.397ZM29.553 43.993L29.3294 44.4402L29.3336 44.4423L29.553 43.993ZM33.919 47.592L33.5238 47.8983L33.5238 47.8983L33.919 47.592ZM33.919 60.1L33.4964 59.8327L33.4926 59.8389L33.919 60.1ZM28.727 64.702L28.5034 64.2548L28.5034 64.2548L28.727 64.702ZM20.644 65.913C17.6696 65.913 15.0215 65.4302 12.6916 64.4753L12.3124 65.4007C14.7811 66.4124 17.5611 66.913 20.644 66.913V65.913ZM12.6916 64.4753C10.369 63.5234 8.51631 62.1212 7.11902 60.2707L6.32098 60.8733C7.83436 62.8775 9.83638 64.3859 12.3124 65.4007L12.6916 64.4753ZM7.12294 60.276C5.77498 58.4412 5.05393 56.2222 4.97779 53.5955L3.97821 53.6245C4.05941 56.4258 4.83302 58.8481 6.31706 60.868L7.12294 60.276ZM4.478 54.11H15.216V53.11H4.478V54.11ZM14.7186 53.661C14.8851 55.2844 15.4548 56.5906 16.4719 57.5192L17.1461 56.7808C16.3538 56.0574 15.8616 55.0036 15.7134 53.559L14.7186 53.661ZM16.4809 57.5273C17.495 58.4091 18.8 58.83 20.349 58.83V57.83C18.9873 57.83 17.9323 57.4642 17.1371 56.7727L16.4809 57.5273ZM20.349 58.83C21.9142 58.83 23.2147 58.48 24.1947 57.7226L23.5833 56.9314C22.8327 57.5114 21.7731 57.83 20.349 57.83V58.83ZM24.2056 57.714C25.1985 56.9016 25.687 55.7898 25.687 54.436H24.687C24.687 55.5208 24.3102 56.3364 23.5724 56.94L24.2056 57.714ZM25.687 54.436C25.687 53.2835 25.2818 52.3038 24.4683 51.5355L23.7817 52.2625C24.3842 52.8315 24.687 53.5432 24.687 54.436H25.687ZM24.4786 51.5454C23.7572 50.824 22.8546 50.24 21.7828 49.7865L21.3932 50.7075C22.3667 51.1194 23.1555 51.6366 23.7714 52.2526L24.4786 51.5454ZM21.7894 49.7893C20.7776 49.3442 19.3384 48.8455 17.4827 48.2928L17.1973 49.2512C19.039 49.7998 20.4317 50.2845 21.3866 50.7047L21.7894 49.7893ZM17.4875 48.2943C14.8269 47.4726 12.6703 46.6554 11.0104 45.8447L10.5716 46.7433C12.2943 47.5846 14.5038 48.4194 17.1925 49.2497L17.4875 48.2943ZM11.0104 45.8447C9.39483 45.0557 7.99939 43.8892 6.82383 42.3344L6.02617 42.9376C7.28928 44.6081 8.80451 45.8803 10.5716 46.7433L11.0104 45.8447ZM6.82383 42.3344C5.68673 40.8305 5.096 38.8413 5.096 36.323H4.096C4.096 38.9967 4.72461 41.2161 6.02617 42.9376L6.82383 42.3344ZM5.096 36.323C5.096 32.6068 6.43305 29.7504 9.0912 27.6913L8.4788 26.9007C5.55161 29.1683 4.096 32.3299 4.096 36.323H5.096ZM9.09464 27.6886C11.7782 25.572 15.2985 24.492 19.7 24.492V23.492C15.1335 23.492 11.3771 24.6147 8.47536 26.9034L9.09464 27.6886ZM19.7 24.492C24.1825 24.492 27.7412 25.5731 30.4234 27.6886L31.0426 26.9034C28.1394 24.6136 24.3428 23.492 19.7 23.492V24.492ZM30.4268 27.6913C33.0914 29.7554 34.5275 32.6418 34.7176 36.4072L35.7164 36.3568C35.5132 32.3342 33.9599 29.1633 31.0392 26.9007L30.4268 27.6913ZM35.217 35.882H24.302V36.882H35.217V35.882ZM24.8011 36.3526C24.7156 34.8982 24.1728 33.7182 23.1454 32.8695L22.5086 33.6405C23.2905 34.2865 23.7311 35.1911 23.8029 36.4114L24.8011 36.3526ZM23.1551 32.8777C22.1435 31.998 20.8596 31.575 19.346 31.575V32.575C20.6644 32.575 21.7012 32.9387 22.4989 33.6323L23.1551 32.8777ZM19.346 31.575C18.0315 31.575 16.9204 31.9378 16.0626 32.7054L16.7294 33.4506C17.3662 32.8808 18.2218 32.575 19.346 32.575V31.575ZM16.0739 32.6955C15.1865 33.4428 14.775 34.5239 14.775 35.851H15.775C15.775 34.7394 16.1108 33.9718 16.7181 33.4605L16.0739 32.6955ZM14.775 35.851C14.775 37.384 15.5147 38.5808 16.9077 39.4079L17.4183 38.5481C16.294 37.8805 15.775 36.9926 15.775 35.851H14.775ZM16.9077 39.4079C18.2155 40.1844 20.2251 41.0044 22.9091 41.8727L23.2169 40.9213C20.5516 40.059 18.6278 39.2662 17.4183 38.5481L16.9077 39.4079ZM22.9028 41.8706C25.5658 42.7714 27.7056 43.6283 29.3294 44.4402L29.7766 43.5458C28.0964 42.7057 25.9095 41.832 23.2232 40.9234L22.9028 41.8706ZM29.3336 44.4423C30.9522 45.2328 32.3486 46.3819 33.5238 47.8983L34.3142 47.2857C33.0508 45.6555 31.5365 44.4052 29.7724 43.5437L29.3336 44.4423ZM33.5238 47.8983C34.66 49.3643 35.248 51.2742 35.248 53.669H36.248C36.248 51.1078 35.6167 48.9663 34.3142 47.2857L33.5238 47.8983ZM35.248 53.669C35.248 55.9378 34.6634 57.9882 33.4965 59.8327L34.3415 60.3673C35.6133 58.3571 36.248 56.1202 36.248 53.669H35.248ZM33.4926 59.8389C32.3675 61.6765 30.7121 63.1504 28.5034 64.2548L28.9506 65.1492C31.3046 63.9722 33.1105 62.3781 34.3454 60.3611L33.4926 59.8389ZM28.5034 64.2548C26.305 65.354 23.6904 65.913 20.644 65.913V66.913C23.8123 66.913 26.5863 66.3314 28.9506 65.1492L28.5034 64.2548ZM63.5508 57.445H64.0508V56.945H63.5508V57.445ZM63.5508 66V66.5H64.0508V66H63.5508ZM49.8628 63.345L49.5315 63.7195L49.5356 63.7231L49.8628 63.345ZM46.7948 41.456H47.2948V40.956H46.7948V41.456ZM42.7828 41.456H42.2828V41.956H42.7828V41.456ZM42.7828 33.078V32.578H42.2828V33.078H42.7828ZM46.7948 33.078V33.578H47.2948V33.078H46.7948ZM46.7948 25.054V24.554H46.2948V25.054H46.7948ZM56.8838 25.054H57.3838V24.554H56.8838V25.054ZM56.8838 33.078H56.3838V33.578H56.8838V33.078ZM63.4918 33.078H63.9918V32.578H63.4918V33.078ZM63.4918 41.456V41.956H63.9918V41.456H63.4918ZM56.8838 41.456V40.956H56.3838V41.456H56.8838ZM57.5918 56.796L57.254 57.1646L57.254 57.1646L57.5918 56.796ZM63.0508 57.445V66H64.0508V57.445H63.0508ZM63.5508 65.5H58.4178V66.5H63.5508V65.5ZM58.4178 65.5C54.8374 65.5 52.1167 64.6343 50.19 62.9669L49.5356 63.7231C51.6996 65.5957 54.6823 66.5 58.4178 66.5V65.5ZM50.1941 62.9705C48.2993 61.2943 47.2948 58.5322 47.2948 54.554H46.2948C46.2948 58.6785 47.3357 61.777 49.5315 63.7195L50.1941 62.9705ZM47.2948 54.554V41.456H46.2948V54.554H47.2948ZM46.7948 40.956H42.7828V41.956H46.7948V40.956ZM43.2828 41.456V33.078H42.2828V41.456H43.2828ZM42.7828 33.578H46.7948V32.578H42.7828V33.578ZM47.2948 33.078V25.054H46.2948V33.078H47.2948ZM46.7948 25.554H56.8838V24.554H46.7948V25.554ZM56.3838 25.054V33.078H57.3838V25.054H56.3838ZM56.8838 33.578H63.4918V32.578H56.8838V33.578ZM62.9918 33.078V41.456H63.9918V33.078H62.9918ZM63.4918 40.956H56.8838V41.956H63.4918V40.956ZM56.3838 41.456V54.672H57.3838V41.456H56.3838ZM56.3838 54.672C56.3838 55.721 56.6342 56.5965 57.254 57.1646L57.9297 56.4274C57.6055 56.1302 57.3838 55.5897 57.3838 54.672H56.3838ZM57.254 57.1646C57.8651 57.7247 58.8083 57.945 59.9518 57.945V56.945C58.8926 56.945 58.2626 56.7326 57.9297 56.4274L57.254 57.1646ZM59.9518 57.945H63.5508V56.945H59.9518V57.945ZM73.1236 28.122L72.7765 28.4819L72.783 28.4882L72.7898 28.4943L73.1236 28.122ZM73.1236 20.334L73.4638 20.7004L73.4643 20.6999L73.1236 20.334ZM81.7376 20.334L81.3905 20.6939L81.397 20.7002L81.4038 20.7063L81.7376 20.334ZM81.7376 28.122L82.0778 28.4884L82.0783 28.4879L81.7376 28.122ZM82.5046 33.078H83.0046V32.578H82.5046V33.078ZM82.5046 66V66.5H83.0046V66H82.5046ZM72.4156 66H71.9156V66.5H72.4156V66ZM72.4156 33.078V32.578H71.9156V33.078H72.4156ZM77.4896 29.156C75.8224 29.156 74.4922 28.6775 73.4573 27.7497L72.7898 28.4943C74.0363 29.6118 75.6168 30.156 77.4896 30.156V29.156ZM73.4706 27.7621C72.4673 26.7946 71.9716 25.6266 71.9716 24.228H70.9716C70.9716 25.8974 71.5772 27.3254 72.7765 28.4819L73.4706 27.7621ZM71.9716 24.228C71.9716 22.7864 72.4696 21.6236 73.4638 20.7004L72.7834 19.9676C71.5749 21.0898 70.9716 22.523 70.9716 24.228H71.9716ZM73.4643 20.6999C74.4997 19.7359 75.8275 19.241 77.4896 19.241V18.241C75.6116 18.241 74.0288 18.8081 72.7829 19.9681L73.4643 20.6999ZM77.4896 19.241C79.1092 19.241 80.3948 19.7338 81.3905 20.6939L82.0846 19.9741C80.8777 18.8102 79.3313 18.241 77.4896 18.241V19.241ZM81.4038 20.7063C82.4355 21.6312 82.9486 22.7924 82.9486 24.228H83.9486C83.9486 22.517 83.321 21.0821 82.0713 19.9617L81.4038 20.7063ZM82.9486 24.228C82.9486 25.6207 82.4378 26.7869 81.3969 27.7561L82.0783 28.4879C83.3187 27.3331 83.9486 25.9033 83.9486 24.228H82.9486ZM81.3974 27.7556C80.4025 28.6794 79.1145 29.156 77.4896 29.156V30.156C79.3259 30.156 80.87 29.6099 82.0778 28.4884L81.3974 27.7556ZM82.0046 33.078V66H83.0046V33.078H82.0046ZM82.5046 65.5H72.4156V66.5H82.5046V65.5ZM72.9156 66V33.078H71.9156V66H72.9156ZM72.4156 33.578H82.5046V32.578H72.4156V33.578ZM103.15 22.34H103.65V21.84H103.15V22.34ZM103.15 66V66.5H103.65V66H103.15ZM93.061 66H92.561V66.5H93.061V66ZM93.061 22.34V21.84H92.561V22.34H93.061ZM102.65 22.34V66H103.65V22.34H102.65ZM103.15 65.5H93.061V66.5H103.15V65.5ZM93.561 66V22.34H92.561V66H93.561ZM93.061 22.84H103.15V21.84H93.061V22.84ZM139.489 58.684L139.963 58.5236L139.848 58.184H139.489V58.684ZM124.031 58.684V58.184H123.673L123.558 58.5236L124.031 58.684ZM121.553 66V66.5H121.912L122.027 66.1604L121.553 66ZM110.992 66L110.522 65.8299L110.28 66.5H110.992V66ZM125.978 24.582V24.082H125.628L125.508 24.4119L125.978 24.582ZM137.66 24.582L138.131 24.4119L138.011 24.082H137.66V24.582ZM152.646 66V66.5H153.359L153.117 65.8299L152.646 66ZM141.967 66L141.494 66.1604L141.609 66.5H141.967V66ZM136.893 50.896V51.396H137.59L137.367 50.7357L136.893 50.896ZM131.76 35.733L132.234 35.5727L131.758 34.1656L131.286 35.5743L131.76 35.733ZM126.686 50.896L126.212 50.7373L125.992 51.396H126.686V50.896ZM139.489 58.184H124.031V59.184H139.489V58.184ZM123.558 58.5236L121.08 65.8396L122.027 66.1604L124.505 58.8444L123.558 58.5236ZM121.553 65.5H110.992V66.5H121.553V65.5ZM111.463 66.1701L126.449 24.7521L125.508 24.4119L110.522 65.8299L111.463 66.1701ZM125.978 25.082H137.66V24.082H125.978V25.082ZM137.19 24.7521L152.176 66.1701L153.117 65.8299L138.131 24.4119L137.19 24.7521ZM152.646 65.5H141.967V66.5H152.646V65.5ZM142.441 65.8396L139.963 58.5236L139.016 58.8444L141.494 66.1604L142.441 65.8396ZM137.367 50.7357L132.234 35.5727L131.287 35.8933L136.42 51.0563L137.367 50.7357ZM131.286 35.5743L126.212 50.7373L127.161 51.0547L132.235 35.8917L131.286 35.5743ZM126.686 51.396H136.893V50.396H126.686V51.396ZM170.541 38.565H170.041V40.247L170.96 38.8381L170.541 38.565ZM174.966 34.317L175.217 34.75L175.224 34.7457L174.966 34.317ZM180.866 32.724H181.366V32.224H180.866V32.724ZM180.866 43.403V43.903H181.366V43.403H180.866ZM172.429 45.055L172.752 45.4372L172.759 45.4313L172.429 45.055ZM170.541 66V66.5H171.041V66H170.541ZM160.452 66H159.952V66.5H160.452V66ZM160.452 33.078V32.578H159.952V33.078H160.452ZM170.541 33.078H171.041V32.578H170.541V33.078ZM170.96 38.8381C172.1 37.0907 173.518 35.7311 175.216 34.7499L174.716 33.8841C172.874 34.9482 171.343 36.4206 170.123 38.2919L170.96 38.8381ZM175.224 34.7457C176.912 33.7327 178.789 33.224 180.866 33.224V32.224C178.617 32.224 176.561 32.7773 174.709 33.8883L175.224 34.7457ZM180.366 32.724V43.403H181.366V32.724H180.366ZM180.866 42.903H178.093V43.903H180.866V42.903ZM178.093 42.903C175.514 42.903 173.486 43.4658 172.1 44.6787L172.759 45.4313C173.89 44.4416 175.638 43.903 178.093 43.903V42.903ZM172.107 44.6729C170.68 45.8769 170.041 47.9509 170.041 50.719H171.041C171.041 48.0591 171.661 46.3571 172.752 45.4371L172.107 44.6729ZM170.041 50.719V66H171.041V50.719H170.041ZM170.541 65.5H160.452V66.5H170.541V65.5ZM160.952 66V33.078H159.952V66H160.952ZM160.452 33.578H170.541V32.578H160.452V33.578ZM170.041 33.078V38.565H171.041V33.078H170.041ZM207.283 57.445H207.783V56.945H207.283V57.445ZM207.283 66V66.5H207.783V66H207.283ZM193.595 63.345L193.263 63.7195L193.267 63.7231L193.595 63.345ZM190.527 41.456H191.027V40.956H190.527V41.456ZM186.515 41.456H186.015V41.956H186.515V41.456ZM186.515 33.078V32.578H186.015V33.078H186.515ZM190.527 33.078V33.578H191.027V33.078H190.527ZM190.527 25.054V24.554H190.027V25.054H190.527ZM200.616 25.054H201.116V24.554H200.616V25.054ZM200.616 33.078H200.116V33.578H200.616V33.078ZM207.224 33.078H207.724V32.578H207.224V33.078ZM207.224 41.456V41.956H207.724V41.456H207.224ZM200.616 41.456V40.956H200.116V41.456H200.616ZM201.324 56.796L200.986 57.1646L200.986 57.1646L201.324 56.796ZM206.783 57.445V66H207.783V57.445H206.783ZM207.283 65.5H202.15V66.5H207.283V65.5ZM202.15 65.5C198.569 65.5 195.849 64.6343 193.922 62.9669L193.267 63.7231C195.431 65.5957 198.414 66.5 202.15 66.5V65.5ZM193.926 62.9705C192.031 61.2943 191.027 58.5322 191.027 54.554H190.027C190.027 58.6785 191.068 61.777 193.263 63.7195L193.926 62.9705ZM191.027 54.554V41.456H190.027V54.554H191.027ZM190.527 40.956H186.515V41.956H190.527V40.956ZM187.015 41.456V33.078H186.015V41.456H187.015ZM186.515 33.578H190.527V32.578H186.515V33.578ZM191.027 33.078V25.054H190.027V33.078H191.027ZM190.527 25.554H200.616V24.554H190.527V25.554ZM200.116 25.054V33.078H201.116V25.054H200.116ZM200.616 33.578H207.224V32.578H200.616V33.578ZM206.724 33.078V41.456H207.724V33.078H206.724ZM207.224 40.956H200.616V41.956H207.224V40.956ZM200.116 41.456V54.672H201.116V41.456H200.116ZM200.116 54.672C200.116 55.721 200.366 56.5965 200.986 57.1646L201.662 56.4274C201.337 56.1302 201.116 55.5897 201.116 54.672H200.116ZM200.986 57.1646C201.597 57.7247 202.54 57.945 203.684 57.945V56.945C202.624 56.945 201.994 56.7326 201.662 56.4274L200.986 57.1646ZM203.684 57.945H207.283V56.945H203.684V57.945Z" fill="#AB996E"/>
<path d="M18.644 64.413C15.6153 64.413 12.9013 63.9213 10.502 62.938C8.10267 61.9547 6.17533 60.4993 4.72 58.572C3.304 56.6447 2.55667 54.324 2.478 51.61H13.216C13.3733 53.144 13.9043 54.324 14.809 55.15C15.7137 55.9367 16.8937 56.33 18.349 56.33C19.8437 56.33 21.0237 55.9957 21.889 55.327C22.7543 54.619 23.187 53.6553 23.187 52.436C23.187 51.4133 22.833 50.5677 22.125 49.899C21.4563 49.2303 20.6107 48.6797 19.588 48.247C18.6047 47.8143 17.1887 47.3227 15.34 46.772C12.6653 45.946 10.4823 45.12 8.791 44.294C7.09967 43.468 5.64433 42.2487 4.425 40.636C3.20567 39.0233 2.596 36.919 2.596 34.323C2.596 30.4683 3.99233 27.4593 6.785 25.296C9.57767 23.0933 13.216 21.992 17.7 21.992C22.2627 21.992 25.9403 23.0933 28.733 25.296C31.5257 27.4593 33.0203 30.488 33.217 34.382H22.302C22.2233 33.0447 21.7317 32.0023 20.827 31.255C19.9223 30.4683 18.762 30.075 17.346 30.075C16.1267 30.075 15.1433 30.4093 14.396 31.078C13.6487 31.7073 13.275 32.6317 13.275 33.851C13.275 35.1883 13.9043 36.2307 15.163 36.978C16.4217 37.7253 18.3883 38.5317 21.063 39.397C23.7377 40.3017 25.901 41.167 27.553 41.993C29.2443 42.819 30.6997 44.0187 31.919 45.592C33.1383 47.1653 33.748 49.191 33.748 51.669C33.748 54.029 33.1383 56.1727 31.919 58.1C30.739 60.0273 29.0083 61.5613 26.727 62.702C24.4457 63.8427 21.7513 64.413 18.644 64.413ZM61.5508 55.445V64H56.4178C52.7598 64 49.9082 63.115 47.8628 61.345C45.8175 59.5357 44.7948 56.6053 44.7948 52.554V39.456H40.7828V31.078H44.7948V23.054H54.8838V31.078H61.4918V39.456H54.8838V52.672C54.8838 53.6553 55.1198 54.3633 55.5918 54.796C56.0638 55.2287 56.8505 55.445 57.9518 55.445H61.5508ZM75.4896 27.656C73.7196 27.656 72.2642 27.1447 71.1236 26.122C70.0222 25.06 69.4716 23.762 69.4716 22.228C69.4716 20.6547 70.0222 19.3567 71.1236 18.334C72.2642 17.272 73.7196 16.741 75.4896 16.741C77.2202 16.741 78.6362 17.272 79.7376 18.334C80.8782 19.3567 81.4486 20.6547 81.4486 22.228C81.4486 23.762 80.8782 25.06 79.7376 26.122C78.6362 27.1447 77.2202 27.656 75.4896 27.656ZM80.5046 31.078V64H70.4156V31.078H80.5046ZM101.15 20.34V64H91.061V20.34H101.15ZM137.489 56.684H122.031L119.553 64H108.992L123.978 22.582H135.66L150.646 64H139.967L137.489 56.684ZM134.893 48.896L129.76 33.733L124.686 48.896H134.893ZM168.541 36.565C169.721 34.7557 171.196 33.3397 172.966 32.317C174.736 31.255 176.703 30.724 178.866 30.724V41.403H176.093C173.576 41.403 171.688 41.9537 170.429 43.055C169.171 44.117 168.541 46.005 168.541 48.719V64H158.452V31.078H168.541V36.565ZM205.283 55.445V64H200.15C196.492 64 193.64 63.115 191.595 61.345C189.549 59.5357 188.527 56.6053 188.527 52.554V39.456H184.515V31.078H188.527V23.054H198.616V31.078H205.224V39.456H198.616V52.672C198.616 53.6553 198.852 54.3633 199.324 54.796C199.796 55.2287 200.582 55.445 201.684 55.445H205.283Z" fill="#AB996E"/>
</svg>
